<svg width="18" height="21" viewBox="0 0 18 21" fill="none" xmlns="http://www.w3.org/2000/svg">
<path d="M12.4 16.2V18.1C12.4 19.1494 11.5494 20 10.5 20H2.9C1.85066 20 1 19.1494 1 18.1V7.65C1 6.60066 1.85066 5.75 2.9 5.75H4.8M11.1505 1H6.7C5.65066 1 4.8 1.85066 4.8 2.9V14.3C4.8 15.3494 5.65066 16.2 6.7 16.2H14.3C15.3494 16.2 16.2 15.3494 16.2 14.3V5.97954C16.2 5.46823 15.9939 4.9785 15.6283 4.62103L12.4788 1.54149C12.1237 1.19437 11.647 1 11.1505 1V1Z" stroke="#797979" stroke-width="2" stroke-linecap="round" stroke-linejoin="round"/>
</svg>
